<svg width="19" height="21" viewBox="0 0 19 21" fill="none" xmlns="http://www.w3.org/2000/svg">
<path d="M16.3748 5.95518L15.5078 18.0972C15.4718 18.6018 15.2461 19.074 14.8759 19.4188C14.5057 19.7635 14.0186 19.9552 13.5128 19.9552H5.23676C4.7309 19.9552 4.24382 19.7635 3.87364 19.4188C3.50346 19.074 3.27767 18.6018 3.24176 18.0972L2.37476 5.95518M7.37476 9.95518V15.9552M11.3748 9.95518V15.9552M12.3748 5.95518V2.95518C12.3748 2.68996 12.2694 2.43561 12.0819 2.24807C11.8943 2.06053 11.64 1.95518 11.3748 1.95518H7.37476C7.10954 1.95518 6.85519 2.06053 6.66765 2.24807C6.48011 2.43561 6.37476 2.68996 6.37476 2.95518V5.95518M1.37476 5.95518H17.3748" stroke="#C05555" stroke-opacity="0.54" stroke-width="2" stroke-linecap="round" stroke-linejoin="round"/>
</svg>
