<svg width="21" height="21" viewBox="0 0 21 21" fill="none" xmlns="http://www.w3.org/2000/svg">
<path d="M18.2282 3.24344C17.8532 2.8685 17.3445 2.65787 16.8142 2.65787C16.2839 2.65787 15.7753 2.8685 15.4002 3.24344L7.81421 10.8294V13.6574H10.6422L18.2282 6.07144C18.6032 5.69639 18.8138 5.18777 18.8138 4.65744C18.8138 4.12711 18.6032 3.6185 18.2282 3.24344Z" fill="#8C7A4D"/>
<path fill-rule="evenodd" clip-rule="evenodd" d="M2.81421 6.65744C2.81421 6.12701 3.02492 5.6183 3.4 5.24323C3.77507 4.86815 4.28378 4.65744 4.81421 4.65744H8.81421C9.07943 4.65744 9.33378 4.7628 9.52132 4.95033C9.70885 5.13787 9.81421 5.39222 9.81421 5.65744C9.81421 5.92266 9.70885 6.17701 9.52132 6.36455C9.33378 6.55208 9.07943 6.65744 8.81421 6.65744H4.81421V16.6574H14.8142V12.6574C14.8142 12.3922 14.9196 12.1379 15.1071 11.9503C15.2946 11.7628 15.549 11.6574 15.8142 11.6574C16.0794 11.6574 16.3338 11.7628 16.5213 11.9503C16.7089 12.1379 16.8142 12.3922 16.8142 12.6574V16.6574C16.8142 17.1879 16.6035 17.6966 16.2284 18.0717C15.8533 18.4467 15.3446 18.6574 14.8142 18.6574H4.81421C4.28378 18.6574 3.77507 18.4467 3.4 18.0717C3.02492 17.6966 2.81421 17.1879 2.81421 16.6574V6.65744Z" fill="#8C7A4D"/>
</svg>
